<svg version="1.1" id="Layer_1" xmlns="http://www.w3.org/2000/svg" xmlns:xlink="http://www.w3.org/1999/xlink" x="0px" y="0px"
	 width="100%" viewBox="0 0 209 220" enable-background="new 0 0 209 220" xml:space="preserve">
<path fill="#0E80FF" opacity="1.000000" stroke="none" 
	d="
M56.069080,21.778498 
	C56.069080,21.778498 56.273941,21.704903 56.853741,21.821417 
	C87.197578,21.958460 116.961632,21.990873 146.725632,21.962763 
	C148.143295,21.961424 149.560486,21.424290 150.977890,21.136673 
	C151.438980,21.135910 151.900070,21.135147 152.780151,21.591370 
	C155.147354,22.328648 157.095566,22.608938 159.043762,22.889231 
	C177.385788,27.265604 191.696259,44.774197 191.920822,63.784431 
	C192.168640,84.762589 192.190079,105.748459 191.929016,126.726234 
	C191.650513,149.103546 173.865433,167.602020 150.081573,169.700836 
	C136.678772,169.249191 123.997704,169.112030 111.316383,169.082611 
	C110.486549,169.080673 109.654800,169.903763 108.823944,170.343079 
	C95.324287,179.631958 81.889145,189.016693 68.295799,198.166382 
	C62.158794,202.297211 59.786037,202.073364 54.993324,197.301208 
	C54.964500,189.076645 55.088570,181.689377 54.910404,174.309402 
	C54.875370,172.858292 53.673252,171.435349 53.009388,169.999420 
	C37.977036,165.238571 26.446741,156.462555 20.695391,141.320419 
	C19.413528,137.945541 18.894558,134.280899 18.351282,130.033508 
	C18.785143,128.504288 18.984789,127.691292 18.985443,126.878136 
	C19.002352,105.860970 19.012207,84.843765 18.964214,63.826702 
	C18.961349,62.571690 18.466675,61.317795 18.200851,60.063381 
	C20.348446,44.614067 28.761942,33.535332 42.219349,26.166357 
	C44.728645,24.792322 47.774876,24.398857 51.234001,23.278223 
	C53.286152,22.595224 54.677616,22.186861 56.069080,21.778498 
M70.909454,106.927322 
	C77.614304,106.983757 84.319145,107.040192 91.459442,107.578568 
	C92.632866,107.414635 93.806282,107.250702 95.755791,106.957825 
	C96.302437,108.697090 97.632469,110.622635 97.270264,112.145775 
	C94.661530,123.116219 91.568336,133.971924 88.994461,144.949753 
	C88.519073,146.977356 89.703255,149.394089 90.121452,151.631210 
	C91.981178,150.685333 94.418365,150.204788 95.612671,148.722702 
	C110.006645,130.860306 124.254166,112.879028 138.399612,94.818901 
	C139.459229,93.466019 139.446747,91.273415 139.519806,88.708839 
	C130.025223,88.749855 120.530624,88.790871 110.286972,88.581902 
	C110.345825,86.967102 110.123634,85.281685 110.508789,83.748871 
	C113.167633,73.167397 116.098045,62.651314 118.558273,52.025555 
	C118.978630,50.210049 117.563004,47.969452 116.995537,45.925232 
	C115.282631,46.525673 112.930916,46.605164 111.952682,47.804726 
	C97.375656,65.679878 82.986519,83.708168 68.533142,101.684341 
	C66.922478,103.687576 66.500633,105.478889 69.185654,107.372292 
	C69.451569,107.280090 69.717476,107.187881 70.909454,106.927322 
z"/>
<path fill="#137EFF" opacity="1.000000" stroke="none" 
	d="
M150.565216,21.050102 
	C149.560486,21.424290 148.143295,21.961424 146.725632,21.962763 
	C116.961632,21.990873 87.197578,21.958460 56.917969,21.909283 
	C60.442692,21.261028 64.479523,20.132895 68.523849,20.105343 
	C92.603966,19.941296 116.685913,19.998093 140.766937,20.077431 
	C143.896408,20.087742 147.024048,20.654514 150.565216,21.050102 
z"/>
<path fill="#035DFF" opacity="1.000000" stroke="none" 
	d="
M18.117992,60.521397 
	C18.466675,61.317795 18.961349,62.571690 18.964214,63.826702 
	C19.012207,84.843765 19.002352,105.860970 18.985443,126.878136 
	C18.984789,127.691292 18.785143,128.504288 18.416073,129.632507 
	C18.114326,106.958244 18.074730,83.968826 18.117992,60.521397 
z"/>
<path fill="#0B70FF" opacity="1.000000" stroke="none" 
	d="
M109.262909,170.373962 
	C109.654800,169.903763 110.486549,169.080673 111.316383,169.082611 
	C123.997704,169.112030 136.678772,169.249191 149.666901,169.638092 
	C136.549866,170.078247 123.125862,170.241547 109.262909,170.373962 
z"/>
<path fill="#0776FF" opacity="1.000000" stroke="none" 
	d="
M53.005848,170.468140 
	C53.673252,171.435349 54.875370,172.858292 54.910404,174.309402 
	C55.088570,181.689377 54.964500,189.076645 54.916698,196.965607 
	C54.259838,195.350967 53.166634,193.248413 53.091618,191.110153 
	C52.855961,184.392944 53.003284,177.662308 53.005848,170.468140 
z"/>
<path fill="#137EFF" opacity="1.000000" stroke="none" 
	d="
M158.796082,22.640484 
	C157.095566,22.608938 155.147354,22.328648 153.097168,21.735971 
	C154.846237,21.746304 156.697311,22.069019 158.796082,22.640484 
z"/>
<path fill="#137EFF" opacity="1.000000" stroke="none" 
	d="
M55.679031,21.739937 
	C54.677616,22.186861 53.286152,22.595224 51.505692,23.001688 
	C52.507454,22.566984 53.898216,22.134178 55.679031,21.739937 
z"/>
<path fill="#FBFDFF" opacity="1.000000" stroke="none" 
	d="
M139.932648,89.471161 
	C139.446747,91.273415 139.459229,93.466019 138.399612,94.818901 
	C124.254166,112.879028 110.006645,130.860306 95.612671,148.722702 
	C94.418365,150.204788 91.981178,150.685333 90.121452,151.631210 
	C89.703255,149.394089 88.519073,146.977356 88.994461,144.949753 
	C91.568336,133.971924 94.661530,123.116219 97.270264,112.145775 
	C97.632469,110.622635 96.302437,108.697090 94.975754,106.952087 
	C93.138474,106.996445 92.081230,107.046539 91.023994,107.096634 
	C84.319145,107.040192 77.614304,106.983757 70.204926,106.950989 
	C69.500397,106.974663 69.010704,107.064598 69.010704,107.064598 
	C66.500633,105.478889 66.922478,103.687576 68.533142,101.684341 
	C82.986519,83.708168 97.375656,65.679878 111.952682,47.804726 
	C112.930916,46.605164 115.282631,46.525673 116.995537,45.925232 
	C117.563004,47.969452 118.978630,50.210049 118.558273,52.025555 
	C116.098045,62.651314 113.167633,73.167397 110.508789,83.748871 
	C110.123634,85.281685 110.345825,86.967102 111.118942,88.807106 
	C121.278160,89.178596 130.605408,89.324875 139.932648,89.471161 
z"/>
<path fill="#0A59FF" opacity="1.000000" stroke="none" 
	d="
M139.726227,89.089996 
	C130.605408,89.324875 121.278160,89.178596 111.493469,88.932098 
	C120.530624,88.790871 130.025223,88.749855 139.726227,89.089996 
z"/>
<path fill="#0372FF" opacity="1.000000" stroke="none" 
	d="
M91.241714,107.337601 
	C92.081230,107.046539 93.138474,106.996445 94.587708,107.016563 
	C93.806282,107.250702 92.632866,107.414635 91.241714,107.337601 
z"/>
<path fill="#0372FF" opacity="1.000000" stroke="none" 
	d="
M69.098175,107.218445 
	C69.010704,107.064598 69.500397,106.974663 69.741898,107.035172 
	C69.717476,107.187881 69.451569,107.280090 69.098175,107.218445 
z"/>
</svg>